HIERARCHY
ROOT Hips
{
 OFFSET 0.000000 0.000000 0.000000
 CHANNELS 6 Xposition Yposition Zposition Yrotation Xrotation Zrotation
 JOINT Chest
 {
  OFFSET 0.000000 9.585900 0.002600
  CHANNELS 3 Yrotation Xrotation Zrotation
  JOINT Chest2
  {
   OFFSET 0.000000 9.601200 -0.005300
   CHANNELS 3 Yrotation Xrotation Zrotation
   JOINT Chest3
   {
    OFFSET 0.000000 9.561800 0.000000
    CHANNELS 3 Yrotation Xrotation Zrotation
    JOINT Chest4
    {
     OFFSET 0.000000 9.552100 0.000000
     CHANNELS 3 Yrotation Xrotation Zrotation
     JOINT Neck
     {
      OFFSET 0.000000 14.453000 0.000000
      CHANNELS 3 Yrotation Xrotation Zrotation
      JOINT Head
      {
       OFFSET 0.000000 8.936500 -0.011300
       CHANNELS 3 Yrotation Xrotation Zrotation
       End Site
       {
        OFFSET 0.000000 17.073600 -0.006000
       }
      }
     }
     JOINT RightCollar
     {
      OFFSET -2.921100 9.558500 0.000000
      CHANNELS 3 Yrotation Xrotation Zrotation
      JOINT RightShoulder
      {
       OFFSET -13.519700 0.000000 0.000000
       CHANNELS 3 Yrotation Xrotation Zrotation
       JOINT RightElbow
       {
        OFFSET 0.000000 -29.696600 0.000000
        CHANNELS 3 Yrotation Xrotation Zrotation
        JOINT RightWrist
        {
         OFFSET 0.000000 -24.004700 0.000000
         CHANNELS 3 Yrotation Xrotation Zrotation
         End Site
         {
          OFFSET 0.000000 -17.728500 0.000000
         }
        }
       }
      }
     }
     JOINT LeftCollar
     {
      OFFSET 2.921100 9.558500 0.000000
      CHANNELS 3 Yrotation Xrotation Zrotation
      JOINT LeftShoulder
      {
       OFFSET 13.519700 0.000000 0.000000
       CHANNELS 3 Yrotation Xrotation Zrotation
       JOINT LeftElbow
       {
        OFFSET 0.000000 -29.696600 0.000000
        CHANNELS 3 Yrotation Xrotation Zrotation
        JOINT LeftWrist
        {
         OFFSET 0.000000 -24.004700 0.000000
         CHANNELS 3 Yrotation Xrotation Zrotation
         End Site
         {
          OFFSET 0.000000 -17.728500 0.000000
         }
        }
       }
      }
     }
    }
   }
  }
 }
 JOINT RightHip
 {
  OFFSET -7.771700 -0.012900 -0.001300
  CHANNELS 3 Yrotation Xrotation Zrotation
  JOINT RightKnee
  {
   OFFSET 0.000000 -40.869800 0.001200
   CHANNELS 3 Yrotation Xrotation Zrotation
   JOINT RightAnkle
   {
    OFFSET 0.000000 -39.717900 0.002100
    CHANNELS 3 Yrotation Xrotation Zrotation
    JOINT RightToe
    {
     OFFSET 0.000000 -4.965400 11.033500
     CHANNELS 3 Yrotation Xrotation Zrotation
     End Site
     {
      OFFSET 0.000000 -1.423100 5.872300
     }
    }
   }
  }
 }
 JOINT LeftHip
 {
  OFFSET 7.771700 -0.012900 -0.001300
  CHANNELS 3 Yrotation Xrotation Zrotation
  JOINT LeftKnee
  {
   OFFSET 0.000000 -40.869800 0.001200
   CHANNELS 3 Yrotation Xrotation Zrotation
   JOINT LeftAnkle
   {
    OFFSET 0.000000 -39.717900 0.002100
    CHANNELS 3 Yrotation Xrotation Zrotation
    JOINT LeftToe
    {
     OFFSET 0.000000 -4.965400 11.033500
     CHANNELS 3 Yrotation Xrotation Zrotation
     End Site
     {
      OFFSET 0.000000 -1.423100 5.872300
     }
    }
   }
  }
 }
}
MOTION
Frames: 16
Frame Time: 0.008333
-0.766694 49.909633 36.192640 172.825279 -35.547579 -7.119496 5.324689 19.582274 6.658313 0.579495 2.523130 0.623855 0.961886 4.158937 1.072467 4.478154 16.728225 4.925916 -0.111527 16.454640 1.717623 -0.808972 -5.216792 3.225339 -0.507913 -1.300387 -4.043744 4.027970 -5.459027 1.043557 35.246734 -72.559180 -45.397478 0.549176 -8.144141 1.141198 -9.800115 0.243883 -0.593310 4.743980 -3.824371 -2.919456 -82.726269 -71.426578 88.584583 10.838471 -9.653605 -4.681013 4.236431 -45.958960 7.732795 -69.907081 80.958996 -58.175665 0.225192 -6.125574 -2.125123 -0.228584 0.933538 -0.043931 -13.207910 -49.019951 17.972647 -143.054287 88.072871 -149.502297 0.940563 -9.302871 4.024495 -0.019096 -0.250549 0.040216
-0.753139 49.921294 36.186956 172.821210 -35.503631 -7.115242 5.324550 19.560625 6.676742 0.572509 2.520888 0.623340 0.958085 4.154617 1.072706 4.474318 16.720111 4.932333 -0.104648 16.505844 1.742541 -0.803585 -5.121468 3.268094 -0.553288 -1.245529 -4.031343 4.027786 -5.473118 1.027395 35.149345 -72.528632 -45.296433 0.571443 -8.185311 1.157370 -9.814695 0.255731 -0.583118 4.694218 -3.881311 -2.960202 -82.517875 -71.423482 88.430664 10.847901 -9.588443 -4.737789 4.201812 -46.013922 7.762366 -70.105136 80.951336 -58.391466 0.225323 -6.151687 -2.124567 -0.226808 0.927658 -0.059877 -13.221833 -49.071984 17.999996 -143.586745 88.060855 -150.027091 0.934027 -9.316224 3.995007 -0.027824 -0.244295 0.049282
-0.738518 49.933320 36.180778 172.821781 -35.474476 -7.122983 5.330264 19.554135 6.707752 0.572970 2.537127 0.648880 0.948084 4.128519 1.049322 4.471640 16.716516 4.939573 -0.099987 16.553286 1.766115 -0.801882 -5.032918 3.309268 -0.564081 -1.239698 -4.053321 3.975011 -5.430912 1.048934 35.078088 -72.520538 -45.210601 0.578263 -8.164846 1.146649 -9.831490 0.262190 -0.572649 4.642569 -3.942438 -3.001774 -82.174445 -71.437133 88.106252 10.845894 -9.562558 -4.767401 4.189992 -46.051336 7.785009 -70.297078 80.937618 -58.578342 0.223029 -6.186923 -2.115023 -0.223286 0.933396 -0.078614 -13.240312 -49.107590 18.036987 -144.308496 88.053172 -150.741323 0.907589 -9.329811 3.989226 -0.022799 -0.238647 0.028917
-0.724841 49.945376 36.174273 172.843796 -35.454472 -7.143258 5.322283 19.560184 6.741399 0.570525 2.528954 0.643083 0.945033 4.129348 1.056459 4.472745 16.711946 4.950348 -0.104493 16.581414 1.773159 -0.797832 -4.943697 3.360972 -0.578653 -1.239314 -4.074921 3.947744 -5.412509 1.051707 35.046192 -72.522976 -45.169031 0.547425 -8.120207 1.117013 -9.854956 0.264843 -0.565107 4.582044 -4.010072 -3.040623 -81.804765 -71.460498 87.741988 10.832700 -9.554448 -4.769530 4.185539 -46.073530 7.793514 -70.531626 80.913878 -58.787990 0.219663 -6.238583 -2.112944 -0.209840 0.952418 -0.087429 -13.261478 -49.135595 18.061955 -145.002654 88.043110 -151.420446 0.883845 -9.340225 3.971725 -0.029532 -0.235819 0.039096
-0.710998 49.957897 36.167519 172.882594 -35.444975 -7.181977 5.304462 19.577711 6.786346 0.565867 2.509631 0.623788 0.951231 4.142669 1.077108 4.473913 16.710022 4.963752 -0.103000 16.614575 1.792949 -0.800940 -4.881830 3.396457 -0.598751 -1.237417 -4.086890 3.877355 -5.342710 1.061969 35.195577 -72.567288 -45.270629 0.512214 -8.106227 1.092286 -9.883952 0.263796 -0.563797 4.510576 -4.084691 -3.073852 -81.437751 -71.499631 87.406672 10.798206 -9.558624 -4.772117 4.210609 -46.075839 7.781356 -70.832495 80.858869 -59.028093 0.246650 -6.317200 -2.112574 -0.197761 0.998969 -0.091549 -13.302831 -49.152584 18.093027 -145.873003 88.036818 -152.274485 0.867059 -9.344777 3.951447 -0.032339 -0.236420 0.039434
-0.693467 49.968752 36.165096 172.873353 -35.424014 -7.226835 5.333246 19.576485 6.864546 0.567796 2.508804 0.626425 0.951109 4.141396 1.079657 4.475816 16.709666 4.973327 -0.093481 16.652676 1.826377 -0.807894 -4.847315 3.416771 -0.620891 -1.238917 -4.095399 3.818775 -5.271391 1.064286 35.207210 -72.621426 -45.244127 0.497757 -8.118602 1.065081 -9.907709 0.256602 -0.570343 4.427336 -4.160821 -3.096964 -81.093958 -71.519323 87.082877 10.767881 -9.581749 -4.731971 4.197692 -46.101724 7.834174 -70.976534 80.836847 -59.143841 0.306823 -6.383146 -2.098128 -0.246828 1.049019 -0.112735 -13.353191 -49.180075 18.191811 -146.428703 88.015971 -152.816661 0.861126 -9.348564 3.921650 -0.042315 -0.241238 0.049338
-0.682597 49.979029 36.161893 172.866335 -35.407761 -7.240879 5.345679 19.570954 6.895120 0.571304 2.519780 0.641422 0.952067 4.141135 1.082293 4.475532 16.715306 4.981032 -0.088594 16.670352 1.844476 -0.804694 -4.814160 3.448286 -0.630251 -1.249253 -4.100159 3.773069 -5.217810 1.053823 34.929794 -72.679127 -44.978041 0.529559 -8.159834 1.062537 -9.923152 0.241324 -0.582771 4.335881 -4.233861 -3.109241 -80.779184 -71.515365 86.810846 10.737084 -9.630272 -4.689178 4.209065 -46.121404 7.840691 -71.086089 80.821829 -59.227506 0.337329 -6.412172 -2.096196 -0.266063 1.067750 -0.121023 -13.371510 -49.202275 18.240914 -146.607013 87.998744 -152.993234 0.849980 -9.354923 3.922257 -0.038623 -0.238828 0.038183
-0.674179 49.986852 36.162179 172.857565 -35.370721 -7.248839 5.353950 19.546290 6.917531 0.573974 2.549743 0.664834 0.950775 4.127267 1.074275 4.473859 16.711259 4.979069 -0.076082 16.692434 1.870535 -0.813360 -4.825635 3.442325 -0.641244 -1.254944 -4.099952 3.755993 -5.202053 1.036523 34.681634 -72.712231 -44.744384 0.532438 -8.163031 1.052860 -9.932206 0.231461 -0.590351 4.289418 -4.278801 -3.120169 -80.655954 -71.440242 86.634245 10.739271 -9.705788 -4.585148 4.211253 -46.163006 7.846435 -71.182201 80.807605 -59.306034 0.356595 -6.437110 -2.092810 -0.266755 1.088758 -0.132709 -13.408083 -49.243843 18.306491 -146.403088 87.979135 -152.806404 0.851379 -9.357310 3.920553 -0.040118 -0.235571 0.036573
-0.665342 49.996637 36.160403 172.851729 -35.355811 -7.264629 5.368032 19.557792 6.956314 0.573195 2.536122 0.656426 0.953445 4.144642 1.087597 4.465964 16.688947 4.961414 -0.051665 16.731554 1.911514 -0.803503 -4.799612 3.491813 -0.643694 -1.250581 -4.083139 3.736129 -5.182144 1.018520 34.635868 -72.737008 -44.694734 0.495991 -8.115476 1.040363 -9.935049 0.231373 -0.590809 4.242942 -4.316725 -3.123166 -80.598992 -71.347425 86.567297 10.742733 -9.768755 -4.528518 4.204923 -46.181574 7.863250 -71.292611 80.790417 -59.397294 0.380081 -6.451457 -2.097951 -0.274359 1.095387 -0.135646 -13.498204 -49.247094 18.425762 -145.693522 87.949868 -152.164188 0.857474 -9.361069 3.932579 -0.037235 -0.234624 0.034802
-0.661832 50.003035 36.162182 172.857285 -35.311788 -7.261315 5.377747 19.579899 6.990944 0.568100 2.507784 0.641333 0.962423 4.184531 1.110396 4.454126 16.660173 4.946287 -0.051700 16.730328 1.923526 -0.791343 -4.777457 3.540651 -0.669393 -1.269571 -4.078929 3.674199 -5.132970 1.001665 34.535821 -72.791838 -44.571950 0.510872 -8.101667 1.055231 -9.953241 0.190996 -0.606595 4.093875 -4.398140 -3.122854 -80.378418 -71.234198 86.451397 10.733507 -9.826273 -4.502362 4.189840 -46.225154 7.850521 -71.406328 80.777447 -59.505242 0.400221 -6.479127 -2.108375 -0.275691 1.114471 -0.136409 -13.557790 -49.290679 18.486172 -144.780515 87.925096 -151.293104 0.869209 -9.358339 3.938904 -0.036302 -0.229974 0.031664
-0.652487 50.010401 36.164869 172.836140 -35.276991 -7.280450 5.403859 19.569337 7.036261 0.576286 2.512581 0.645214 0.955569 4.176692 1.104713 4.472700 16.710073 4.983173 -0.061397 16.695545 1.915883 -0.793526 -4.793074 3.539884 -0.699420 -1.334476 -4.114309 3.633233 -5.106033 1.006946 34.362464 -72.815111 -44.393227 0.530352 -8.084348 1.084649 -9.979399 0.135148 -0.619329 3.995982 -4.464884 -3.142585 -80.319626 -71.106273 86.461056 10.721232 -9.873264 -4.500325 4.130343 -46.262569 7.910478 -71.478128 80.773001 -59.593073 0.464564 -6.523137 -2.106339 -0.329449 1.151470 -0.153927 -13.636367 -49.319699 18.605519 -144.022037 87.894560 -150.572001 0.880264 -9.363389 3.939791 -0.036778 -0.225644 0.029159
-0.649323 50.017711 36.165434 172.825567 -35.250897 -7.269044 5.408138 19.569351 7.042768 0.576280 2.517033 0.645587 0.955743 4.154479 1.093285 4.475740 16.734101 4.996354 -0.049562 16.702407 1.934491 -0.792087 -4.805570 3.540840 -0.711964 -1.357928 -4.128129 3.605231 -5.091217 1.016119 34.246172 -72.822386 -44.278062 0.542939 -8.052409 1.118807 -9.996320 0.129964 -0.612268 3.929448 -4.515917 -3.167189 -80.361496 -70.975619 86.550960 10.709770 -9.901430 -4.521049 4.096806 -46.288133 7.923816 -71.493266 80.778759 -59.633385 0.479257 -6.541310 -2.103852 -0.366092 1.162423 -0.162695 -13.670803 -49.344580 18.651157 -143.456773 87.876061 -150.042431 0.893035 -9.363457 3.942388 -0.035440 -0.223700 0.027147
-0.645692 50.025990 36.164539 172.831080 -35.236885 -7.270760 5.402588 19.568635 7.047734 0.572193 2.531434 0.652268 0.956100 4.155812 1.093537 4.478910 16.739638 4.993129 -0.038322 16.709207 1.954067 -0.755009 -4.754231 3.617677 -0.724336 -1.384069 -4.145028 3.580406 -5.078977 1.032391 34.158539 -72.820600 -44.197534 0.564864 -8.020320 1.158533 -10.051147 0.163636 -0.571835 3.906857 -4.594061 -3.227736 -80.454068 -70.862819 86.685373 10.698575 -9.905146 -4.561953 4.075231 -46.300633 7.926443 -71.632995 80.761027 -59.766221 0.485574 -6.566602 -2.124367 -0.339806 1.176620 -0.156031 -13.706244 -49.358138 18.687268 -143.037279 87.859958 -149.646446 0.896733 -9.361683 3.942885 -0.034579 -0.223355 0.024251
-0.645157 50.033742 36.163010 172.844502 -35.223897 -7.260891 5.387434 19.570489 7.037041 0.574568 2.545393 0.659892 0.960695 4.179984 1.102795 4.467652 16.723884 4.977142 -0.027982 16.716144 1.974452 -0.736162 -4.727815 3.667031 -0.740122 -1.413276 -4.162600 3.560214 -5.067718 1.050450 34.102512 -72.810536 -44.148667 0.581006 -8.024349 1.193639 -10.089618 0.166103 -0.553000 3.870124 -4.636420 -3.263790 -80.577730 -70.788822 86.839930 10.682041 -9.883039 -4.629521 3.993051 -46.302406 7.947435 -71.743421 80.749890 -59.917044 0.508160 -6.600946 -2.141164 -0.340026 1.191727 -0.155738 -13.711907 -49.374800 18.685496 -142.359813 87.843248 -148.987328 0.910206 -9.359112 3.951350 -0.034661 -0.221655 0.020081
-0.655210 50.041932 36.156821 172.887015 -35.227654 -7.204614 5.333972 19.608917 6.968134 0.574239 2.546736 0.659576 0.964025 4.192744 1.106306 4.460881 16.721141 4.971379 -0.018774 16.723139 1.995355 -0.726191 -4.714601 3.702361 -0.755594 -1.445859 -4.178401 3.546747 -5.054489 1.063016 34.083905 -72.798699 -44.137558 0.589177 -8.021417 1.224240 -10.131933 0.168591 -0.534945 3.873911 -4.675972 -3.294540 -80.739609 -70.763538 86.986474 10.663859 -9.837629 -4.719808 3.859101 -46.275771 7.919086 -72.027201 80.719553 -60.276801 0.549302 -6.607339 -2.199278 -0.323607 1.154094 -0.135377 -13.650367 -49.383098 18.557698 -142.251222 87.855880 -148.892474 0.903310 -9.345930 3.961927 -0.027709 -0.221754 0.009422
-0.658533 50.047882 36.156232 172.888968 -35.205978 -7.173512 5.331362 19.618925 6.950051 0.578301 2.563536 0.666095 0.956092 4.181038 1.098973 4.455884 16.725521 4.969082 -0.009538 16.729696 2.017111 -0.716373 -4.702140 3.739241 -0.768538 -1.486406 -4.197181 3.545273 -5.037118 1.073638 34.109816 -72.788999 -44.174836 0.607072 -7.974836 1.247267 -10.171808 0.164578 -0.518332 3.834187 -4.716459 -3.327845 -80.844782 -70.765951 87.110220 10.652006 -9.775362 -4.809983 3.761571 -46.289977 7.930254 -72.149819 80.717682 -60.459734 0.590368 -6.626117 -2.216614 -0.325482 1.153782 -0.142074 -13.621872 -49.415601 18.519139 -142.286135 87.859798 -148.934785 0.903747 -9.334091 3.960973 -0.032747 -0.226735 0.015896
